<svg width="32" height="32" viewBox="0 0 32 32" fill="none" xmlns="http://www.w3.org/2000/svg">
<g clip-path="url(#clip0_1_732)">
<path d="M32 14.6667C32 12.576 30.9973 10.6133 29.3333 9.36133V9.33333C29.3333 6.804 27.564 4.68133 25.1973 4.136C24.652 1.77067 22.528 0 20 0C18.408 0 16.9773 0.701333 16 1.80933C15.0227 0.7 13.592 0 12 0C9.472 0 7.348 1.76933 6.80267 4.136C4.43733 4.68133 2.66667 6.804 2.66667 9.33333V9.36133C1.00267 10.6133 0 12.5747 0 14.6667C0 15.848 0.313333 16.9827 0.914667 18C0.314667 19.0173 0 20.152 0 21.3333C0 23.5813 1.144 25.6587 3.02267 26.888C3.98133 29.9253 6.772 32 10 32C12.4773 32 14.672 30.7653 16 28.8773C17.328 30.764 19.5227 32 22 32C25.2293 32 28.02 29.9253 28.9773 26.888C30.8547 25.6587 32 23.5813 32 21.3333C32 20.152 31.6867 19.0173 31.0853 18C31.6853 16.9827 32 15.848 32 14.6667ZM10 29.3333C7.82133 29.3333 5.956 27.8467 5.46533 25.7173C5.37867 25.3427 5.13467 25.024 4.796 24.8427C3.48267 24.1387 2.66667 22.7947 2.66667 21.3347C2.66667 20.4347 2.97867 19.572 3.572 18.8387C3.96667 18.3493 3.96667 17.652 3.572 17.1627C2.98 16.4307 2.66667 15.568 2.66667 14.6667C2.66667 13.24 3.45467 11.9107 4.724 11.196C5.21733 10.9187 5.48133 10.36 5.38267 9.80267C5.356 9.64933 5.33333 9.49467 5.33333 9.33333C5.33333 7.86267 6.52933 6.66667 8 6.66667C8.73733 6.66667 9.33333 6.06933 9.33333 5.33333C9.33333 3.86267 10.5293 2.66667 12 2.66667C13.4707 2.66667 14.6667 3.86267 14.6667 5.33333V10.6667H11.6427C11.1813 9.86933 10.32 9.33333 9.33333 9.33333C7.86 9.33333 6.66667 10.5267 6.66667 12C6.66667 13.4733 7.86 14.6667 9.33333 14.6667C10.32 14.6667 11.1813 14.1307 11.6427 13.3333H14.6667V20H11.6427C11.1813 19.2027 10.32 18.6667 9.33333 18.6667C7.86 18.6667 6.66667 19.86 6.66667 21.3333C6.66667 22.8067 7.86 24 9.33333 24C10.32 24 11.1813 23.464 11.6427 22.6667H14.6667V24.6667C14.6667 27.24 12.5733 29.3333 10 29.3333ZM28.428 18.8373C29.02 19.5693 29.3333 20.432 29.3333 21.3333C29.3333 22.7947 28.5187 24.1387 27.204 24.8413C26.8653 25.0227 26.6213 25.3413 26.5347 25.716C26.044 27.8453 24.1773 29.332 22 29.332C19.4267 29.332 17.3333 27.2387 17.3333 24.6653V18.6653H20C22.2053 18.6653 24 16.8707 24 14.6653V14.308C24.7973 13.8467 25.3333 12.9853 25.3333 11.9987C25.3333 10.5253 24.14 9.332 22.6667 9.332C21.1933 9.332 20 10.5253 20 11.9987C20 12.9853 20.536 13.8467 21.3333 14.308V14.6653C21.3333 15.4 20.736 15.9987 20 15.9987H17.3333V5.33333C17.3333 3.86267 18.5293 2.66667 20 2.66667C21.4707 2.66667 22.6667 3.86267 22.6667 5.33333C22.6667 6.06933 23.2627 6.66667 24 6.66667C25.4707 6.66667 26.6667 7.86267 26.6667 9.33333C26.6667 9.49467 26.6427 9.64933 26.6173 9.80267C26.5187 10.36 26.7827 10.9187 27.276 11.196C28.5453 11.9093 29.3333 13.24 29.3333 14.6667C29.3333 15.5667 29.0213 16.4293 28.428 17.1627C28.0333 17.652 28.0333 18.348 28.428 18.8373Z" fill="#7936FF"/>
</g>
<defs>
<clipPath id="clip0_1_732">
<rect width="32" height="32" fill="white"/>
</clipPath>
</defs>
</svg>
