<svg width="32" height="32" viewBox="0 0 32 32" fill="none" xmlns="http://www.w3.org/2000/svg">
<path d="M27.9998 13.3333H3.99976M21.3331 2.66663V7.99996M10.6664 2.66663V7.99996M11.9998 21.3333L14.6664 24L20.6664 18M10.3998 29.3333H21.5998C23.84 29.3333 24.9601 29.3333 25.8157 28.8973C26.5684 28.5138 27.1803 27.9019 27.5638 27.1493C27.9998 26.2936 27.9998 25.1735 27.9998 22.9333V11.7333C27.9998 9.49308 27.9998 8.37298 27.5638 7.51733C27.1803 6.76468 26.5684 6.15276 25.8157 5.76927C24.9601 5.33329 23.84 5.33329 21.5998 5.33329H10.3998C8.15955 5.33329 7.03944 5.33329 6.18379 5.76927C5.43115 6.15276 4.81922 6.76468 4.43573 7.51733C3.99976 8.37298 3.99976 9.49308 3.99976 11.7333V22.9333C3.99976 25.1735 3.99976 26.2936 4.43573 27.1493C4.81922 27.9019 5.43115 28.5138 6.18379 28.8973C7.03944 29.3333 8.15955 29.3333 10.3998 29.3333Z" stroke="#7936FF" stroke-width="2.66" stroke-linecap="round" stroke-linejoin="round"/>
</svg>
