<svg width="32" height="32" viewBox="0 0 32 32" fill="none" xmlns="http://www.w3.org/2000/svg">
<g clip-path="url(#clip0_1_717)">
<path d="M1.33333 10.6667C0.6 10.6667 0 10.0667 0 9.33333V6.66667C0 2.98667 2.98667 0 6.66667 0H9.33333C10.0667 0 10.6667 0.6 10.6667 1.33333C10.6667 2.06667 10.0667 2.66667 9.33333 2.66667H6.66667C4.46667 2.66667 2.66667 4.46667 2.66667 6.66667V9.33333C2.66667 10.0667 2.06667 10.6667 1.33333 10.6667ZM10.6667 30.6667C10.6667 29.9333 10.0667 29.3333 9.33333 29.3333H6.66667C4.46667 29.3333 2.66667 27.5333 2.66667 25.3333V22.6667C2.66667 21.9333 2.06667 21.3333 1.33333 21.3333C0.6 21.3333 0 21.9333 0 22.6667V25.3333C0 29.0133 2.98667 32 6.66667 32H9.33333C10.0667 32 10.6667 31.4 10.6667 30.6667ZM32 25.3333V22.6667C32 21.9333 31.4 21.3333 30.6667 21.3333C29.9333 21.3333 29.3333 21.9333 29.3333 22.6667V25.3333C29.3333 27.5333 27.5333 29.3333 25.3333 29.3333H22.6667C21.9333 29.3333 21.3333 29.9333 21.3333 30.6667C21.3333 31.4 21.9333 32 22.6667 32H25.3333C29.0133 32 32 29.0133 32 25.3333ZM32 9.33333V6.66667C32 2.98667 29.0133 0 25.3333 0H22.6667C21.9333 0 21.3333 0.6 21.3333 1.33333C21.3333 2.06667 21.9333 2.66667 22.6667 2.66667H25.3333C27.5333 2.66667 29.3333 4.46667 29.3333 6.66667V9.33333C29.3333 10.0667 29.9333 10.6667 30.6667 10.6667C31.4 10.6667 32 10.0667 32 9.33333ZM12.6933 22.92L16 20.7067L19.36 22.8933C19.8 23.1733 20.36 23.16 20.7733 22.84C21.1867 22.52 21.3467 21.9867 21.1867 21.4933L19.9867 17.8533L22.88 15.4933C23.2667 15.16 23.4133 14.6267 23.24 14.1333C23.0667 13.64 22.6 13.3333 22.0933 13.3333H18.4267L17.1333 9.85333C16.96 9.37333 16.4933 9.05333 15.9867 9.05333C15.48 9.05333 15.0133 9.37333 14.84 9.85333L13.5467 13.3333H9.88C9.37333 13.3333 8.90667 13.6533 8.73333 14.1333C8.56 14.6133 8.69333 15.16 9.09333 15.48L12 17.84L10.8533 21.52C10.6933 22.0133 10.8667 22.56 11.28 22.8667C11.4933 23.0267 11.76 23.1067 12.0133 23.1067C12.2533 23.1067 12.4933 23.04 12.6933 22.9067V22.92Z" fill="#7936FF"/>
</g>
<defs>
<clipPath id="clip0_1_717">
<rect width="32" height="32" fill="white"/>
</clipPath>
</defs>
</svg>
