<svg width="32" height="32" viewBox="0 0 32 32" fill="none" xmlns="http://www.w3.org/2000/svg">
<g clip-path="url(#clip0_1_710)">
<path d="M29.3387 5.99729C29.34 4.84396 28.6387 3.85063 27.552 3.46663L18.932 0.425292C17.084 -0.229375 15.0454 -0.230708 13.196 0.415959L4.47069 3.46929C3.38003 3.85196 2.67603 4.84396 2.67603 5.99996C2.67603 7.15463 3.38136 8.14663 4.47203 8.52796L8.00003 9.75863V12C8.00003 16.412 11.588 20 16 20C20.412 20 24 16.412 24 12V9.75729L26.6667 8.82663V14.6653C26.6667 15.4026 27.264 15.9986 28 15.9986C28.736 15.9986 29.3334 15.4026 29.3334 14.6653C29.3334 14.6653 29.3387 6.00929 29.3387 5.99729ZM21.3334 12C21.3334 14.9413 18.9414 17.3333 16 17.3333C13.0587 17.3333 10.6667 14.9413 10.6667 12V10.688L13.1494 11.5546C14.068 11.8746 15.0334 12.0346 15.9987 12.0346C16.964 12.0346 17.9294 11.8746 18.8494 11.5546L21.3334 10.688V12ZM17.9707 9.03596C16.6987 9.47863 15.2987 9.47863 14.0267 9.03596L5.35069 5.98663L14.076 2.93463C15.3587 2.48529 16.768 2.48929 18.044 2.93996L26.6627 6.00396L17.9707 9.03596ZM27.1 30.3973C27.248 31.1186 26.7854 31.824 26.064 31.9733C25.9734 31.992 25.8827 32.0013 25.7934 32.0013C25.1747 32.0013 24.6187 31.568 24.488 30.9373C24.0134 28.636 22.5867 26.596 20.5734 25.3426L17.024 29.548C16.5174 30.1546 15.4827 30.1546 14.976 29.548L11.468 25.34C9.41336 26.596 7.98669 28.636 7.51202 30.9373C7.36403 31.6586 6.65736 32.1173 5.93603 31.9733C5.21469 31.824 4.75069 31.1186 4.90003 30.3973C5.52269 27.3826 7.38803 24.716 10.016 23.08C11.1574 22.368 12.6614 22.6066 13.516 23.6306L16 26.6106L18.4827 23.6306C19.336 22.6053 20.8414 22.3666 21.9814 23.0773C24.6134 24.716 26.4774 27.384 27.1 30.3973Z" fill="#7936FF"/>
</g>
<defs>
<clipPath id="clip0_1_710">
<rect width="32" height="32" fill="white"/>
</clipPath>
</defs>
</svg>
